Coordinates
version=1
nRows=21
nColumns=12
inDegrees=yes

Units are S.I. units (second, meters, Newtons, ...)
Angles are in degrees

endheader
time	SC_y	SC_z	SC_x	AC_y	AC_z	AC_x	GH_y	GH_z	GH_yy	EL_x	PS_y
       0.0              -15.18          15.84          80.31          31.16          6.786          19.27         -106.2          55.12          41.63          39.32          106.2
   0.01576              -15.18          15.84           80.3          31.16          6.784          19.26         -106.2          55.13          41.61          39.32          106.2
   0.03152              -15.19          15.83          80.29          31.16          6.782          19.26         -106.2          55.13          41.59          39.33          106.2
   0.04728              -15.19          15.83          80.28          31.16          6.779          19.25         -106.2          55.14          41.57          39.34          106.2
   0.06303              -15.19          15.83          80.27          31.16          6.777          19.24         -106.2          55.14          41.55          39.35          106.2
   0.07879               -15.2          15.83          80.26          31.16          6.774          19.24         -106.1          55.15          41.53          39.36          106.2
   0.09455               -15.2          15.83          80.24          31.16          6.772          19.23         -106.1          55.15           41.5          39.37          106.2
    0.1103              -15.21          15.83          80.23          31.17          6.769          19.22         -106.1          55.16          41.47          39.38          106.2
    0.1261              -15.22          15.83          80.21          31.17          6.765          19.21         -106.1          55.17          41.45          39.39          106.2
    0.1418              -15.22          15.83           80.2          31.17          6.762           19.2         -106.0          55.18          41.42           39.4          106.2
    0.1576              -15.23          15.82          80.18          31.17          6.758          19.19         -106.0          55.18          41.38          39.41          106.2
    0.1733              -15.24          15.82          80.16          31.17          6.755          19.18         -106.0          55.19          41.35          39.43          106.2
    0.1891              -15.25          15.82          80.14          31.17           6.75          19.17         -105.9           55.2          41.31          39.44          106.1
    0.2049              -15.26          15.82          80.12          31.17          6.746          19.16         -105.9          55.21          41.27          39.46          106.1
    0.2206              -15.27          15.82          80.09          31.17          6.741          19.14         -105.8          55.22          41.23          39.47          106.1
    0.2364              -15.28          15.82          80.07          31.18          6.735          19.13         -105.8          55.24          41.18          39.49          106.1
    0.2521              -15.29          15.81          80.04          31.18           6.73          19.11         -105.7          55.25          41.13          39.51          106.1
    0.2679               -15.3          15.81          80.01          31.18          6.723          19.09         -105.7          55.27          41.07          39.54          106.1
    0.2837              -15.31          15.81          79.98          31.18          6.716          19.08         -105.6          55.28          41.01          39.56          106.1
    0.2994              -15.33           15.8          79.94          31.18          6.709          19.05         -105.5           55.3          40.94          39.59          106.1
    0.3152              -15.35           15.8           79.9          31.19          6.701          19.03         -105.5          55.32          40.86          39.62          106.0
